# 3ds Max Wavefront OBJ Exporter v0.97b - (c)2007 guruware
# File Created: 08.12.2015 04:34:10

mtllib key.mtl

#
# object Cylinder001
#

v  1.2985 0.0000 -2.1177
v  1.2985 0.0000 -4.1177
v  2.7128 0.0000 -3.5319
v  3.2985 0.0000 -2.1177
v  -0.7015 0.0000 -2.1177
v  -0.1157 0.0000 -3.5319
v  1.2985 0.0000 -0.1177
v  -0.1157 0.0000 -0.7034
v  2.7128 0.0000 -0.7034
v  2.7128 48.8773 -3.5319
v  3.2985 48.8773 -2.1177
v  1.2985 48.8773 -4.1177
v  -0.1157 48.8773 -3.5319
v  -0.7015 48.8773 -2.1177
v  -0.1157 48.8773 -0.7034
v  1.2985 48.8773 -0.1177
v  2.7128 48.8773 -0.7034
v  1.2985 48.8773 -2.1177
# 18 vertices

vn 0.0000 -1.0000 -0.0000
vn 1.0000 0.0000 0.0000
vn 0.7071 0.0000 -0.7071
vn -0.0000 0.0000 -1.0000
vn -0.7071 0.0000 -0.7071
vn -1.0000 0.0000 0.0000
vn -0.7071 0.0000 0.7071
vn -0.0000 0.0000 1.0000
vn 0.7071 0.0000 0.7071
vn 0.0000 1.0000 -0.0000
# 10 vertex normals

vt 0.5000 0.0000 0.0000
vt 0.0000 0.0000 1.0000
vt -0.1250 0.0000 1.0000
vt 0.1161 0.0000 0.4142
vt 0.2500 0.0000 1.0000
vt 0.1250 0.0000 1.0000
vt 0.5000 0.0000 1.0000
vt 0.3750 0.0000 1.0000
vt 0.7500 0.0000 1.0000
vt 0.6250 0.0000 1.0000
vt 0.8750 0.0000 1.0000
vt 0.8750 1.0000 1.0000
vt 0.7500 1.0000 1.0000
vt 0.0000 1.0000 1.0000
vt -0.1250 1.0000 1.0000
vt 0.1250 1.0000 1.0000
vt 0.2500 1.0000 1.0000
vt 0.3750 1.0000 1.0000
vt 0.5000 1.0000 1.0000
vt 0.6250 1.0000 1.0000
vt 0.5000 1.0000 0.0000
# 21 texture coords

g Cylinder001
usemtl wire_177148027
s 1
f 1/1/1 2/2/1 3/3/1 4/4/1 
f 1/1/1 5/5/1 6/6/1 2/2/1 
f 1/1/1 7/7/1 8/8/1 5/5/1 
f 1/1/1 4/9/1 9/10/1 7/7/1 
s 8
f 4/9/2 3/11/3 10/12/3 11/13/2 
f 3/3/3 2/2/4 12/14/4 10/15/3 
f 2/2/4 6/6/5 13/16/5 12/14/4 
f 6/6/5 5/5/6 14/17/6 13/16/5 
f 5/5/6 8/8/7 15/18/7 14/17/6 
f 8/8/7 7/7/8 16/19/8 15/18/7 
f 7/7/8 9/10/9 17/20/9 16/19/8 
f 9/10/9 4/9/2 11/13/2 17/20/9 
s 1
f 18/21/10 17/20/10 11/13/10 10/12/10 
f 18/21/10 10/15/10 12/14/10 13/16/10 
f 18/21/10 13/16/10 14/17/10 15/18/10 
f 18/21/10 15/18/10 16/19/10 17/20/10 
# 16 polygons

#
# object Torus001
#

v  1.2985 70.4814 -2.1177
v  1.2985 69.8956 -0.7034
v  4.8133 69.3389 -0.7034
v  4.9943 69.8960 -2.1177
v  1.2985 68.4814 -0.1177
v  4.3763 67.9939 -0.1177
v  1.2985 67.0672 -0.7034
v  3.9393 66.6489 -0.7034
v  1.2985 66.4814 -2.1177
v  3.7583 66.0918 -2.1177
v  1.2985 67.0672 -3.5319
v  3.9393 66.6489 -3.5319
v  1.2985 68.4814 -4.1177
v  4.3763 67.9939 -4.1177
v  1.2985 69.8956 -3.5319
v  4.8133 69.3389 -3.5319
v  7.9841 67.7233 -0.7034
v  8.3284 68.1972 -2.1177
v  7.1528 66.5792 -0.1177
v  6.3216 65.4351 -0.7034
v  5.9772 64.9612 -2.1177
v  6.3216 65.4351 -3.5319
v  7.1528 66.5792 -4.1177
v  7.9841 67.7233 -3.5319
v  10.5004 65.2070 -0.7034
v  10.9743 65.5513 -2.1177
v  9.3563 64.3758 -0.1177
v  8.2121 63.5445 -0.7034
v  7.7382 63.2002 -2.1177
v  8.2121 63.5445 -3.5319
v  9.3563 64.3758 -4.1177
v  10.5004 65.2070 -3.5319
v  12.1160 62.0363 -0.7034
v  12.6731 62.2173 -2.1177
v  10.7710 61.5993 -0.1177
v  9.4260 61.1623 -0.7034
v  8.8688 60.9812 -2.1177
v  9.4260 61.1623 -3.5319
v  10.7710 61.5993 -4.1177
v  12.1160 62.0363 -3.5319
v  12.6726 58.5215 -0.7034
v  13.2584 58.5215 -2.1177
v  11.2584 58.5215 -0.1177
v  9.8442 58.5215 -0.7034
v  9.2584 58.5215 -2.1177
v  9.8442 58.5215 -3.5319
v  11.2584 58.5215 -4.1177
v  12.6726 58.5215 -3.5319
v  12.1160 55.0067 -0.7034
v  12.6731 54.8257 -2.1177
v  10.7710 55.4437 -0.1177
v  9.4260 55.8807 -0.7034
v  8.8688 56.0618 -2.1177
v  9.4260 55.8807 -3.5319
v  10.7710 55.4437 -4.1177
v  12.1160 55.0067 -3.5319
v  10.5004 51.8360 -0.7034
v  10.9743 51.4916 -2.1177
v  9.3563 52.6672 -0.1177
v  8.2121 53.4985 -0.7034
v  7.7382 53.8428 -2.1177
v  8.2121 53.4985 -3.5319
v  9.3563 52.6672 -4.1177
v  10.5004 51.8360 -3.5319
v  7.9841 49.3197 -0.7034
v  8.3284 48.8457 -2.1177
v  7.1528 50.4638 -0.1177
v  6.3216 51.6079 -0.7034
v  5.9772 52.0818 -2.1177
v  6.3216 51.6079 -3.5319
v  7.1528 50.4638 -4.1177
v  7.9841 49.3197 -3.5319
v  4.8133 47.7041 -0.7034
v  4.9943 47.1470 -2.1177
v  4.3763 49.0491 -0.1177
v  3.9393 50.3941 -0.7034
v  3.7583 50.9512 -2.1177
v  3.9393 50.3941 -3.5319
v  4.3763 49.0491 -4.1177
v  4.8133 47.7041 -3.5319
v  1.2985 47.1474 -0.7034
v  1.2985 46.5616 -2.1177
v  1.2985 48.5616 -0.1177
v  1.2985 49.9758 -0.7034
v  1.2985 50.5616 -2.1177
v  1.2985 49.9758 -3.5319
v  1.2985 48.5616 -4.1177
v  1.2985 47.1474 -3.5319
v  -2.2163 47.7041 -0.7034
v  -2.3973 47.1470 -2.1177
v  -1.7792 49.0491 -0.1177
v  -1.3422 50.3941 -0.7034
v  -1.1612 50.9512 -2.1177
v  -1.3422 50.3941 -3.5319
v  -1.7792 49.0491 -4.1177
v  -2.2163 47.7041 -3.5319
v  -5.3870 49.3197 -0.7034
v  -5.7313 48.8457 -2.1177
v  -4.5557 50.4638 -0.1177
v  -3.7245 51.6079 -0.7034
v  -3.3802 52.0818 -2.1177
v  -3.7245 51.6079 -3.5319
v  -4.5557 50.4638 -4.1177
v  -5.3870 49.3197 -3.5319
v  -7.9033 51.8360 -0.7034
v  -8.3772 51.4916 -2.1177
v  -6.7592 52.6672 -0.1177
v  -5.6151 53.4985 -0.7034
v  -5.1411 53.8428 -2.1177
v  -5.6151 53.4985 -3.5319
v  -6.7592 52.6672 -4.1177
v  -7.9033 51.8360 -3.5319
v  -9.5189 55.0067 -0.7034
v  -10.0760 54.8257 -2.1177
v  -8.1739 55.4437 -0.1177
v  -6.8289 55.8807 -0.7034
v  -6.2718 56.0618 -2.1177
v  -6.8289 55.8807 -3.5319
v  -8.1739 55.4437 -4.1177
v  -9.5189 55.0067 -3.5319
v  -10.0756 58.5215 -0.7034
v  -10.6613 58.5215 -2.1177
v  -8.6613 58.5215 -0.1177
v  -7.2471 58.5215 -0.7034
v  -6.6613 58.5215 -2.1177
v  -7.2471 58.5215 -3.5319
v  -8.6613 58.5215 -4.1177
v  -10.0756 58.5215 -3.5319
v  -9.5189 62.0363 -0.7034
v  -10.0760 62.2173 -2.1177
v  -8.1739 61.5993 -0.1177
v  -6.8289 61.1623 -0.7034
v  -6.2718 60.9812 -2.1177
v  -6.8289 61.1623 -3.5319
v  -8.1739 61.5993 -4.1177
v  -9.5189 62.0363 -3.5319
v  -7.9033 65.2070 -0.7034
v  -8.3772 65.5513 -2.1177
v  -6.7592 64.3758 -0.1177
v  -5.6151 63.5445 -0.7034
v  -5.1411 63.2002 -2.1177
v  -5.6151 63.5445 -3.5319
v  -6.7592 64.3758 -4.1177
v  -7.9033 65.2070 -3.5319
v  -5.3870 67.7233 -0.7034
v  -5.7313 68.1973 -2.1177
v  -4.5557 66.5792 -0.1177
v  -3.7245 65.4351 -0.7034
v  -3.3802 64.9612 -2.1177
v  -3.7245 65.4351 -3.5319
v  -4.5557 66.5792 -4.1177
v  -5.3870 67.7233 -3.5319
v  -2.2162 69.3389 -0.7034
v  -2.3973 69.8960 -2.1177
v  -1.7792 67.9939 -0.1177
v  -1.3422 66.6489 -0.7034
v  -1.1612 66.0918 -2.1177
v  -1.3422 66.6489 -3.5319
v  -1.7792 67.9939 -4.1177
v  -2.2162 69.3389 -3.5319
# 160 vertices

vn 0.0000 1.0000 0.0000
vn 0.0000 0.7252 0.6885
vn 0.2241 0.6897 0.6885
vn 0.3090 0.9511 0.0000
vn 0.0000 0.0382 0.9993
vn 0.0118 0.0363 0.9993
vn -0.0000 -0.6870 0.7267
vn -0.2123 -0.6533 0.7267
vn -0.0000 -1.0000 -0.0000
vn -0.3090 -0.9511 -0.0000
vn -0.0000 -0.6870 -0.7267
vn -0.2123 -0.6533 -0.7267
vn 0.0000 0.0382 -0.9993
vn 0.0118 0.0363 -0.9993
vn 0.0000 0.7252 -0.6885
vn 0.2241 0.6897 -0.6885
vn 0.4263 0.5867 0.6885
vn 0.5878 0.8090 0.0000
vn 0.0225 0.0309 0.9993
vn -0.4038 -0.5558 0.7267
vn -0.5878 -0.8090 -0.0000
vn -0.4038 -0.5558 -0.7267
vn 0.0225 0.0309 -0.9993
vn 0.4263 0.5867 -0.6885
vn 0.5867 0.4263 0.6885
vn 0.8090 0.5878 0.0000
vn 0.0309 0.0225 0.9993
vn -0.5558 -0.4038 0.7267
vn -0.8090 -0.5878 -0.0000
vn -0.5558 -0.4038 -0.7267
vn 0.0309 0.0225 -0.9993
vn 0.5867 0.4263 -0.6885
vn 0.6897 0.2241 0.6885
vn 0.9511 0.3090 0.0000
vn 0.0363 0.0118 0.9993
vn -0.6533 -0.2123 0.7267
vn -0.9511 -0.3090 -0.0000
vn -0.6533 -0.2123 -0.7267
vn 0.0363 0.0118 -0.9993
vn 0.6897 0.2241 -0.6885
vn 0.7252 -0.0000 0.6885
vn 1.0000 0.0000 0.0000
vn 0.0382 -0.0000 0.9993
vn -0.6870 -0.0000 0.7267
vn -1.0000 0.0000 -0.0000
vn -0.6870 0.0000 -0.7267
vn 0.0382 0.0000 -0.9993
vn 0.7252 0.0000 -0.6885
vn 0.6897 -0.2241 0.6885
vn 0.9511 -0.3090 -0.0000
vn 0.0363 -0.0118 0.9993
vn -0.6533 0.2123 0.7267
vn -0.9511 0.3090 0.0000
vn -0.6533 0.2123 -0.7267
vn 0.0363 -0.0118 -0.9993
vn 0.6897 -0.2241 -0.6885
vn 0.5867 -0.4263 0.6885
vn 0.8090 -0.5878 -0.0000
vn 0.0309 -0.0225 0.9993
vn -0.5558 0.4038 0.7267
vn -0.8090 0.5878 0.0000
vn -0.5558 0.4038 -0.7267
vn 0.0309 -0.0225 -0.9993
vn 0.5867 -0.4263 -0.6885
vn 0.4263 -0.5867 0.6885
vn 0.5878 -0.8090 -0.0000
vn 0.0225 -0.0309 0.9993
vn -0.4038 0.5558 0.7267
vn -0.5878 0.8090 0.0000
vn -0.4038 0.5558 -0.7267
vn 0.0225 -0.0309 -0.9993
vn 0.4263 -0.5867 -0.6885
vn 0.2241 -0.6897 0.6885
vn 0.3090 -0.9511 -0.0000
vn 0.0118 -0.0363 0.9993
vn -0.2123 0.6533 0.7267
vn -0.3090 0.9511 0.0000
vn -0.2123 0.6533 -0.7267
vn 0.0118 -0.0363 -0.9993
vn 0.2241 -0.6897 -0.6885
vn -0.0000 -0.7252 0.6885
vn -0.0000 -0.0382 0.9993
vn 0.0000 0.6870 0.7267
vn 0.0000 0.6870 -0.7267
vn -0.0000 -0.0382 -0.9993
vn -0.0000 -0.7252 -0.6885
vn -0.2241 -0.6897 0.6885
vn -0.0118 -0.0363 0.9993
vn 0.2123 0.6533 0.7267
vn 0.2123 0.6533 -0.7267
vn -0.0118 -0.0363 -0.9993
vn -0.2241 -0.6897 -0.6885
vn -0.4263 -0.5867 0.6885
vn -0.0225 -0.0309 0.9993
vn 0.4038 0.5558 0.7267
vn 0.4038 0.5558 -0.7267
vn -0.0225 -0.0309 -0.9993
vn -0.4263 -0.5867 -0.6885
vn -0.5867 -0.4263 0.6885
vn -0.0309 -0.0225 0.9993
vn 0.5558 0.4038 0.7267
vn 0.5558 0.4038 -0.7267
vn -0.0309 -0.0225 -0.9993
vn -0.5867 -0.4263 -0.6885
vn -0.6897 -0.2241 0.6885
vn -0.0363 -0.0118 0.9993
vn 0.6533 0.2123 0.7267
vn 0.6533 0.2123 -0.7267
vn -0.0363 -0.0118 -0.9993
vn -0.6897 -0.2241 -0.6885
vn -0.7252 0.0000 0.6885
vn -1.0000 0.0000 0.0000
vn -0.0382 -0.0000 0.9993
vn 0.6870 -0.0000 0.7267
vn 1.0000 -0.0000 0.0000
vn 0.6870 -0.0000 -0.7267
vn -0.0382 0.0000 -0.9993
vn -0.7252 0.0000 -0.6885
vn -0.6897 0.2241 0.6885
vn -0.0363 0.0118 0.9993
vn 0.6533 -0.2123 0.7267
vn 0.6533 -0.2123 -0.7267
vn -0.0363 0.0118 -0.9993
vn -0.6897 0.2241 -0.6885
vn -0.5867 0.4263 0.6885
vn -0.0309 0.0225 0.9993
vn 0.5558 -0.4038 0.7267
vn 0.5558 -0.4038 -0.7267
vn -0.0309 0.0225 -0.9993
vn -0.5867 0.4263 -0.6885
vn -0.4263 0.5867 0.6885
vn -0.0225 0.0309 0.9993
vn 0.4038 -0.5558 0.7267
vn 0.4038 -0.5558 -0.7267
vn -0.0225 0.0309 -0.9993
vn -0.4263 0.5867 -0.6885
vn -0.2241 0.6897 0.6885
vn -0.0118 0.0363 0.9993
vn 0.2123 -0.6533 0.7267
vn 0.2123 -0.6533 -0.7267
vn -0.0118 0.0363 -0.9993
vn -0.2241 0.6897 -0.6885
# 142 vertex normals

vt 0.0000 0.0000 0.0000
vt 0.1250 0.0000 0.0000
vt 0.1250 0.0500 0.0000
vt 0.0000 0.0500 0.0000
vt 0.2500 0.0000 0.0000
vt 0.2500 0.0500 0.0000
vt 0.3750 0.0000 0.0000
vt 0.3750 0.0500 0.0000
vt 0.5000 0.0000 0.0000
vt 0.5000 0.0500 0.0000
vt 0.6250 0.0000 0.0000
vt 0.6250 0.0500 0.0000
vt 0.7500 0.0000 0.0000
vt 0.7500 0.0500 0.0000
vt 0.8750 0.0000 0.0000
vt 0.8750 0.0500 0.0000
vt 1.0000 0.0000 0.0000
vt 1.0000 0.0500 0.0000
vt 0.1250 0.1000 0.0000
vt 0.0000 0.1000 0.0000
vt 0.2500 0.1000 0.0000
vt 0.3750 0.1000 0.0000
vt 0.5000 0.1000 0.0000
vt 0.6250 0.1000 0.0000
vt 0.7500 0.1000 0.0000
vt 0.8750 0.1000 0.0000
vt 1.0000 0.1000 0.0000
vt 0.1250 0.1500 0.0000
vt 0.0000 0.1500 0.0000
vt 0.2500 0.1500 0.0000
vt 0.3750 0.1500 0.0000
vt 0.5000 0.1500 0.0000
vt 0.6250 0.1500 0.0000
vt 0.7500 0.1500 0.0000
vt 0.8750 0.1500 0.0000
vt 1.0000 0.1500 0.0000
vt 0.1250 0.2000 0.0000
vt 0.0000 0.2000 0.0000
vt 0.2500 0.2000 0.0000
vt 0.3750 0.2000 0.0000
vt 0.5000 0.2000 0.0000
vt 0.6250 0.2000 0.0000
vt 0.7500 0.2000 0.0000
vt 0.8750 0.2000 0.0000
vt 1.0000 0.2000 0.0000
vt 0.1250 0.2500 0.0000
vt 0.0000 0.2500 0.0000
vt 0.2500 0.2500 0.0000
vt 0.3750 0.2500 0.0000
vt 0.5000 0.2500 0.0000
vt 0.6250 0.2500 0.0000
vt 0.7500 0.2500 0.0000
vt 0.8750 0.2500 0.0000
vt 1.0000 0.2500 0.0000
vt 0.1250 0.3000 0.0000
vt 0.0000 0.3000 0.0000
vt 0.2500 0.3000 0.0000
vt 0.3750 0.3000 0.0000
vt 0.5000 0.3000 0.0000
vt 0.6250 0.3000 0.0000
vt 0.7500 0.3000 0.0000
vt 0.8750 0.3000 0.0000
vt 1.0000 0.3000 0.0000
vt 0.1250 0.3500 0.0000
vt 0.0000 0.3500 0.0000
vt 0.2500 0.3500 0.0000
vt 0.3750 0.3500 0.0000
vt 0.5000 0.3500 0.0000
vt 0.6250 0.3500 0.0000
vt 0.7500 0.3500 0.0000
vt 0.8750 0.3500 0.0000
vt 1.0000 0.3500 0.0000
vt 0.1250 0.4000 0.0000
vt 0.0000 0.4000 0.0000
vt 0.2500 0.4000 0.0000
vt 0.3750 0.4000 0.0000
vt 0.5000 0.4000 0.0000
vt 0.6250 0.4000 0.0000
vt 0.7500 0.4000 0.0000
vt 0.8750 0.4000 0.0000
vt 1.0000 0.4000 0.0000
vt 0.1250 0.4500 0.0000
vt 0.0000 0.4500 0.0000
vt 0.2500 0.4500 0.0000
vt 0.3750 0.4500 0.0000
vt 0.5000 0.4500 0.0000
vt 0.6250 0.4500 0.0000
vt 0.7500 0.4500 0.0000
vt 0.8750 0.4500 0.0000
vt 1.0000 0.4500 0.0000
vt 0.1250 0.5000 0.0000
vt 0.0000 0.5000 0.0000
vt 0.2500 0.5000 0.0000
vt 0.3750 0.5000 0.0000
vt 0.5000 0.5000 0.0000
vt 0.6250 0.5000 0.0000
vt 0.7500 0.5000 0.0000
vt 0.8750 0.5000 0.0000
vt 1.0000 0.5000 0.0000
vt 0.1250 0.5500 0.0000
vt 0.0000 0.5500 0.0000
vt 0.2500 0.5500 0.0000
vt 0.3750 0.5500 0.0000
vt 0.5000 0.5500 0.0000
vt 0.6250 0.5500 0.0000
vt 0.7500 0.5500 0.0000
vt 0.8750 0.5500 0.0000
vt 1.0000 0.5500 0.0000
vt 0.1250 0.6000 0.0000
vt 0.0000 0.6000 0.0000
vt 0.2500 0.6000 0.0000
vt 0.3750 0.6000 0.0000
vt 0.5000 0.6000 0.0000
vt 0.6250 0.6000 0.0000
vt 0.7500 0.6000 0.0000
vt 0.8750 0.6000 0.0000
vt 1.0000 0.6000 0.0000
vt 0.1250 0.6500 0.0000
vt 0.0000 0.6500 0.0000
vt 0.2500 0.6500 0.0000
vt 0.3750 0.6500 0.0000
vt 0.5000 0.6500 0.0000
vt 0.6250 0.6500 0.0000
vt 0.7500 0.6500 0.0000
vt 0.8750 0.6500 0.0000
vt 1.0000 0.6500 0.0000
vt 0.1250 0.7000 0.0000
vt 0.0000 0.7000 0.0000
vt 0.2500 0.7000 0.0000
vt 0.3750 0.7000 0.0000
vt 0.5000 0.7000 0.0000
vt 0.6250 0.7000 0.0000
vt 0.7500 0.7000 0.0000
vt 0.8750 0.7000 0.0000
vt 1.0000 0.7000 0.0000
vt 0.1250 0.7500 0.0000
vt 0.0000 0.7500 0.0000
vt 0.2500 0.7500 0.0000
vt 0.3750 0.7500 0.0000
vt 0.5000 0.7500 0.0000
vt 0.6250 0.7500 0.0000
vt 0.7500 0.7500 0.0000
vt 0.8750 0.7500 0.0000
vt 1.0000 0.7500 0.0000
vt 0.1250 0.8000 0.0000
vt 0.0000 0.8000 0.0000
vt 0.2500 0.8000 0.0000
vt 0.3750 0.8000 0.0000
vt 0.5000 0.8000 0.0000
vt 0.6250 0.8000 0.0000
vt 0.7500 0.8000 0.0000
vt 0.8750 0.8000 0.0000
vt 1.0000 0.8000 0.0000
vt 0.1250 0.8500 0.0000
vt 0.0000 0.8500 0.0000
vt 0.2500 0.8500 0.0000
vt 0.3750 0.8500 0.0000
vt 0.5000 0.8500 0.0000
vt 0.6250 0.8500 0.0000
vt 0.7500 0.8500 0.0000
vt 0.8750 0.8500 0.0000
vt 1.0000 0.8500 0.0000
vt 0.1250 0.9000 0.0000
vt 0.0000 0.9000 0.0000
vt 0.2500 0.9000 0.0000
vt 0.3750 0.9000 0.0000
vt 0.5000 0.9000 0.0000
vt 0.6250 0.9000 0.0000
vt 0.7500 0.9000 0.0000
vt 0.8750 0.9000 0.0000
vt 1.0000 0.9000 0.0000
vt 0.1250 0.9500 0.0000
vt 0.0000 0.9500 0.0000
vt 0.2500 0.9500 0.0000
vt 0.3750 0.9500 0.0000
vt 0.5000 0.9500 0.0000
vt 0.6250 0.9500 0.0000
vt 0.7500 0.9500 0.0000
vt 0.8750 0.9500 0.0000
vt 1.0000 0.9500 0.0000
vt 0.1250 1.0000 0.0000
vt 0.0000 1.0000 0.0000
vt 0.2500 1.0000 0.0000
vt 0.3750 1.0000 0.0000
vt 0.5000 1.0000 0.0000
vt 0.6250 1.0000 0.0000
vt 0.7500 1.0000 0.0000
vt 0.8750 1.0000 0.0000
vt 1.0000 1.0000 0.0000
# 189 texture coords

g Torus001
usemtl wire_177148027
s 1
f 19/22/11 20/23/12 21/24/13 22/25/14 
f 20/23/12 23/26/15 24/27/16 21/24/13 
f 23/26/15 25/28/17 26/29/18 24/27/16 
f 25/28/17 27/30/19 28/31/20 26/29/18 
f 27/30/19 29/32/21 30/33/22 28/31/20 
f 29/32/21 31/34/23 32/35/24 30/33/22 
f 31/34/23 33/36/25 34/37/26 32/35/24 
f 33/36/25 19/38/11 22/39/14 34/37/26 
f 22/25/14 21/24/13 35/40/27 36/41/28 
f 21/24/13 24/27/16 37/42/29 35/40/27 
f 24/27/16 26/29/18 38/43/30 37/42/29 
f 26/29/18 28/31/20 39/44/31 38/43/30 
f 28/31/20 30/33/22 40/45/32 39/44/31 
f 30/33/22 32/35/24 41/46/33 40/45/32 
f 32/35/24 34/37/26 42/47/34 41/46/33 
f 34/37/26 22/39/14 36/48/28 42/47/34 
f 36/41/28 35/40/27 43/49/35 44/50/36 
f 35/40/27 37/42/29 45/51/37 43/49/35 
f 37/42/29 38/43/30 46/52/38 45/51/37 
f 38/43/30 39/44/31 47/53/39 46/52/38 
f 39/44/31 40/45/32 48/54/40 47/53/39 
f 40/45/32 41/46/33 49/55/41 48/54/40 
f 41/46/33 42/47/34 50/56/42 49/55/41 
f 42/47/34 36/48/28 44/57/36 50/56/42 
f 44/50/36 43/49/35 51/58/43 52/59/44 
f 43/49/35 45/51/37 53/60/45 51/58/43 
f 45/51/37 46/52/38 54/61/46 53/60/45 
f 46/52/38 47/53/39 55/62/47 54/61/46 
f 47/53/39 48/54/40 56/63/48 55/62/47 
f 48/54/40 49/55/41 57/64/49 56/63/48 
f 49/55/41 50/56/42 58/65/50 57/64/49 
f 50/56/42 44/57/36 52/66/44 58/65/50 
f 52/59/44 51/58/43 59/67/51 60/68/52 
f 51/58/43 53/60/45 61/69/53 59/67/51 
f 53/60/45 54/61/46 62/70/54 61/69/53 
f 54/61/46 55/62/47 63/71/55 62/70/54 
f 55/62/47 56/63/48 64/72/56 63/71/55 
f 56/63/48 57/64/49 65/73/57 64/72/56 
f 57/64/49 58/65/50 66/74/58 65/73/57 
f 58/65/50 52/66/44 60/75/52 66/74/58 
f 60/68/52 59/67/51 67/76/59 68/77/60 
f 59/67/51 61/69/53 69/78/61 67/76/59 
f 61/69/53 62/70/54 70/79/62 69/78/61 
f 62/70/54 63/71/55 71/80/63 70/79/62 
f 63/71/55 64/72/56 72/81/64 71/80/63 
f 64/72/56 65/73/57 73/82/65 72/81/64 
f 65/73/57 66/74/58 74/83/66 73/82/65 
f 66/74/58 60/75/52 68/84/60 74/83/66 
f 68/77/60 67/76/59 75/85/67 76/86/68 
f 67/76/59 69/78/61 77/87/69 75/85/67 
f 69/78/61 70/79/62 78/88/70 77/87/69 
f 70/79/62 71/80/63 79/89/71 78/88/70 
f 71/80/63 72/81/64 80/90/72 79/89/71 
f 72/81/64 73/82/65 81/91/73 80/90/72 
f 73/82/65 74/83/66 82/92/74 81/91/73 
f 74/83/66 68/84/60 76/93/68 82/92/74 
f 76/86/68 75/85/67 83/94/75 84/95/76 
f 75/85/67 77/87/69 85/96/77 83/94/75 
f 77/87/69 78/88/70 86/97/78 85/96/77 
f 78/88/70 79/89/71 87/98/79 86/97/78 
f 79/89/71 80/90/72 88/99/80 87/98/79 
f 80/90/72 81/91/73 89/100/81 88/99/80 
f 81/91/73 82/92/74 90/101/82 89/100/81 
f 82/92/74 76/93/68 84/102/76 90/101/82 
f 84/95/76 83/94/75 91/103/83 92/104/84 
f 83/94/75 85/96/77 93/105/85 91/103/83 
f 85/96/77 86/97/78 94/106/86 93/105/85 
f 86/97/78 87/98/79 95/107/87 94/106/86 
f 87/98/79 88/99/80 96/108/88 95/107/87 
f 88/99/80 89/100/81 97/109/89 96/108/88 
f 89/100/81 90/101/82 98/110/90 97/109/89 
f 90/101/82 84/102/76 92/111/84 98/110/90 
f 92/104/84 91/103/83 99/112/91 100/113/19 
f 91/103/83 93/105/85 101/114/92 99/112/91 
f 93/105/85 94/106/86 102/115/93 101/114/92 
f 94/106/86 95/107/87 103/116/11 102/115/93 
f 95/107/87 96/108/88 104/117/94 103/116/11 
f 96/108/88 97/109/89 105/118/95 104/117/94 
f 97/109/89 98/110/90 106/119/96 105/118/95 
f 98/110/90 92/111/84 100/120/19 106/119/96 
f 100/113/19 99/112/91 107/121/97 108/122/20 
f 99/112/91 101/114/92 109/123/98 107/121/97 
f 101/114/92 102/115/93 110/124/99 109/123/98 
f 102/115/93 103/116/11 111/125/14 110/124/99 
f 103/116/11 104/117/94 112/126/100 111/125/14 
f 104/117/94 105/118/95 113/127/101 112/126/100 
f 105/118/95 106/119/96 114/128/102 113/127/101 
f 106/119/96 100/120/19 108/129/20 114/128/102 
f 108/122/20 107/121/97 115/130/103 116/131/31 
f 107/121/97 109/123/98 117/132/104 115/130/103 
f 109/123/98 110/124/99 118/133/105 117/132/104 
f 110/124/99 111/125/14 119/134/28 118/133/105 
f 111/125/14 112/126/100 120/135/106 119/134/28 
f 112/126/100 113/127/101 121/136/107 120/135/106 
f 113/127/101 114/128/102 122/137/108 121/136/107 
f 114/128/102 108/129/20 116/138/31 122/137/108 
f 116/131/31 115/130/103 123/139/109 124/140/39 
f 115/130/103 117/132/104 125/141/110 123/139/109 
f 117/132/104 118/133/105 126/142/111 125/141/110 
f 118/133/105 119/134/28 127/143/36 126/142/111 
f 119/134/28 120/135/106 128/144/112 127/143/36 
f 120/135/106 121/136/107 129/145/113 128/144/112 
f 121/136/107 122/137/108 130/146/114 129/145/113 
f 122/137/108 116/138/31 124/147/39 130/146/114 
f 124/140/39 123/139/109 131/148/115 132/149/47 
f 123/139/109 125/141/110 133/150/116 131/148/115 
f 125/141/110 126/142/111 134/151/117 133/150/116 
f 126/142/111 127/143/36 135/152/44 134/151/117 
f 127/143/36 128/144/112 136/153/118 135/152/44 
f 128/144/112 129/145/113 137/154/119 136/153/118 
f 129/145/113 130/146/114 138/155/120 137/154/119 
f 130/146/114 124/147/39 132/156/47 138/155/120 
f 132/149/47 131/148/115 139/157/121 140/158/122 
f 131/148/115 133/150/116 141/159/123 139/157/121 
f 133/150/116 134/151/117 142/160/124 141/159/123 
f 134/151/117 135/152/44 143/161/125 142/160/124 
f 135/152/44 136/153/118 144/162/126 143/161/125 
f 136/153/118 137/154/119 145/163/127 144/162/126 
f 137/154/119 138/155/120 146/164/128 145/163/127 
f 138/155/120 132/156/47 140/165/122 146/164/128 
f 140/158/122 139/157/121 147/166/129 148/167/63 
f 139/157/121 141/159/123 149/168/130 147/166/129 
f 141/159/123 142/160/124 150/169/131 149/168/130 
f 142/160/124 143/161/125 151/170/60 150/169/131 
f 143/161/125 144/162/126 152/171/132 151/170/60 
f 144/162/126 145/163/127 153/172/133 152/171/132 
f 145/163/127 146/164/128 154/173/134 153/172/133 
f 146/164/128 140/165/122 148/174/63 154/173/134 
f 148/167/63 147/166/129 155/175/135 156/176/71 
f 147/166/129 149/168/130 157/177/136 155/175/135 
f 149/168/130 150/169/131 158/178/137 157/177/136 
f 150/169/131 151/170/60 159/179/68 158/178/137 
f 151/170/60 152/171/132 160/180/138 159/179/68 
f 152/171/132 153/172/133 161/181/139 160/180/138 
f 153/172/133 154/173/134 162/182/140 161/181/139 
f 154/173/134 148/174/63 156/183/71 162/182/140 
f 156/176/71 155/175/135 163/184/141 164/185/79 
f 155/175/135 157/177/136 165/186/142 163/184/141 
f 157/177/136 158/178/137 166/187/143 165/186/142 
f 158/178/137 159/179/68 167/188/76 166/187/143 
f 159/179/68 160/180/138 168/189/144 167/188/76 
f 160/180/138 161/181/139 169/190/145 168/189/144 
f 161/181/139 162/182/140 170/191/146 169/190/145 
f 162/182/140 156/183/71 164/192/79 170/191/146 
f 164/185/79 163/184/141 171/193/147 172/194/87 
f 163/184/141 165/186/142 173/195/148 171/193/147 
f 165/186/142 166/187/143 174/196/149 173/195/148 
f 166/187/143 167/188/76 175/197/84 174/196/149 
f 167/188/76 168/189/144 176/198/150 175/197/84 
f 168/189/144 169/190/145 177/199/151 176/198/150 
f 169/190/145 170/191/146 178/200/152 177/199/151 
f 170/191/146 164/192/79 172/201/87 178/200/152 
f 172/194/87 171/193/147 20/202/12 19/203/11 
f 171/193/147 173/195/148 23/204/15 20/202/12 
f 173/195/148 174/196/149 25/205/17 23/204/15 
f 174/196/149 175/197/84 27/206/19 25/205/17 
f 175/197/84 176/198/150 29/207/21 27/206/19 
f 176/198/150 177/199/151 31/208/23 29/207/21 
f 177/199/151 178/200/152 33/209/25 31/208/23 
f 178/200/152 172/201/87 19/210/11 33/209/25 
# 160 polygons

#
# object Box001
#

v  1.2985 0.0000 -0.9900
v  1.2985 0.0000 -3.2454
v  13.1008 0.0000 -3.2454
v  13.1008 0.0000 -0.9900
v  1.2985 4.0340 -0.9900
v  13.1008 4.0340 -0.9900
v  13.1008 4.0340 -3.2454
v  1.2985 4.0340 -3.2454
# 8 vertices

vn 0.0000 -1.0000 -0.0000
vn 0.0000 1.0000 -0.0000
vn 0.0000 0.0000 1.0000
vn 1.0000 0.0000 -0.0000
vn 0.0000 0.0000 -1.0000
vn -1.0000 0.0000 -0.0000
# 6 vertex normals

vt 1.0000 0.0000 0.0000
vt 1.0000 1.0000 0.0000
vt 0.0000 1.0000 0.0000
vt 0.0000 0.0000 0.0000
# 4 texture coords

g Box001
usemtl wire_177148027
s 2
f 179/211/153 180/212/153 181/213/153 182/214/153 
s 4
f 183/214/154 184/211/154 185/212/154 186/213/154 
s 8
f 179/214/155 182/211/155 184/212/155 183/213/155 
s 16
f 182/214/156 181/211/156 185/212/156 184/213/156 
s 32
f 181/214/157 180/211/157 186/212/157 185/213/157 
s 64
f 180/214/158 179/211/158 183/212/158 186/213/158 
# 6 polygons

#
# object Box002
#

v  2.5340 6.0613 -0.9900
v  2.5340 6.0613 -3.2454
v  9.4668 6.0613 -3.2454
v  9.4668 6.0613 -0.9900
v  2.5340 10.0953 -0.9900
v  9.4668 10.0953 -0.9900
v  9.4668 10.0953 -3.2454
v  2.5340 10.0953 -3.2454
# 8 vertices

vn 0.0000 -1.0000 -0.0000
vn 0.0000 1.0000 -0.0000
vn 0.0000 0.0000 1.0000
vn 1.0000 0.0000 -0.0000
vn 0.0000 0.0000 -1.0000
vn -1.0000 0.0000 -0.0000
# 6 vertex normals

vt 1.0000 0.0000 0.0000
vt 1.0000 1.0000 0.0000
vt 0.0000 1.0000 0.0000
vt 0.0000 0.0000 0.0000
# 4 texture coords

g Box002
usemtl wire_177148027
s 2
f 187/215/159 188/216/159 189/217/159 190/218/159 
s 4
f 191/218/160 192/215/160 193/216/160 194/217/160 
s 8
f 187/218/161 190/215/161 192/216/161 191/217/161 
s 16
f 190/218/162 189/215/162 193/216/162 192/217/162 
s 32
f 189/218/163 188/215/163 194/216/163 193/217/163 
s 64
f 188/218/164 187/215/164 191/216/164 194/217/164 
# 6 polygons

